<svg width="800" height="240" viewBox="0 0 800 240" fill="none" xmlns="http://www.w3.org/2000/svg">
<g clip-path="url(#clip0_7_26)">
<path d="M800 0H0V240H800V0Z" fill="black"/>
<path d="M130 156C149.882 156 166 139.882 166 120C166 100.118 149.882 84 130 84C110.118 84 94 100.118 94 120C94 139.882 110.118 156 130 156Z" stroke="white" stroke-width="3"/>
<path d="M130 135C138.284 135 145 128.284 145 120C145 111.716 138.284 105 130 105C121.716 105 115 111.716 115 120C115 128.284 121.716 135 130 135Z" fill="white"/>
<path d="M255.568 105.205L246.534 107.761C245.966 106.256 245.128 104.793 244.02 103.372C242.94 101.923 241.463 100.73 239.588 99.7926C237.713 98.8551 235.312 98.3864 232.386 98.3864C228.381 98.3864 225.043 99.3097 222.372 101.156C219.73 102.974 218.409 105.29 218.409 108.102C218.409 110.602 219.318 112.577 221.136 114.026C222.955 115.474 225.795 116.682 229.659 117.648L239.375 120.034C245.227 121.455 249.588 123.628 252.457 126.554C255.327 129.452 256.761 133.187 256.761 137.761C256.761 141.511 255.682 144.864 253.523 147.818C251.392 150.773 248.409 153.102 244.574 154.807C240.739 156.511 236.278 157.364 231.193 157.364C224.517 157.364 218.991 155.915 214.616 153.017C210.241 150.119 207.472 145.886 206.307 140.318L215.852 137.932C216.761 141.455 218.48 144.097 221.009 145.858C223.565 147.619 226.903 148.5 231.023 148.5C235.71 148.5 239.432 147.506 242.188 145.517C244.972 143.5 246.364 141.085 246.364 138.273C246.364 136 245.568 134.097 243.977 132.562C242.386 131 239.943 129.835 236.648 129.068L225.739 126.511C219.744 125.091 215.341 122.889 212.528 119.906C209.744 116.895 208.352 113.131 208.352 108.614C208.352 104.92 209.389 101.653 211.463 98.8125C213.565 95.9716 216.42 93.7415 220.028 92.1222C223.665 90.5028 227.784 89.6932 232.386 89.6932C238.864 89.6932 243.949 91.1136 247.642 93.9545C251.364 96.7955 254.006 100.545 255.568 105.205ZM298.491 157.364C292.582 157.364 287.397 155.957 282.937 153.145C278.505 150.332 275.039 146.398 272.539 141.341C270.067 136.284 268.832 130.375 268.832 123.614C268.832 116.795 270.067 110.844 272.539 105.759C275.039 100.673 278.505 96.7244 282.937 93.9119C287.397 91.0994 292.582 89.6932 298.491 89.6932C304.4 89.6932 309.57 91.0994 314.002 93.9119C318.462 96.7244 321.928 100.673 324.4 105.759C326.9 110.844 328.15 116.795 328.15 123.614C328.15 130.375 326.9 136.284 324.4 141.341C321.928 146.398 318.462 150.332 314.002 153.145C309.57 155.957 304.4 157.364 298.491 157.364ZM298.491 148.33C302.979 148.33 306.673 147.179 309.57 144.878C312.468 142.577 314.613 139.551 316.005 135.801C317.397 132.051 318.093 127.989 318.093 123.614C318.093 119.239 317.397 115.162 316.005 111.384C314.613 107.605 312.468 104.551 309.57 102.222C306.673 99.892 302.979 98.7273 298.491 98.7273C294.002 98.7273 290.309 99.892 287.411 102.222C284.513 104.551 282.369 107.605 280.977 111.384C279.585 115.162 278.888 119.239 278.888 123.614C278.888 127.989 279.585 132.051 280.977 135.801C282.369 139.551 284.513 142.577 287.411 144.878C290.309 147.179 294.002 148.33 298.491 148.33ZM353.558 68.7273V156H343.501V68.7273H353.558ZM371.978 156V90.5455H381.694V100.773H382.546C383.91 97.2784 386.112 94.5653 389.151 92.6335C392.191 90.6733 395.842 89.6932 400.103 89.6932C404.421 89.6932 408.015 90.6733 410.884 92.6335C413.782 94.5653 416.04 97.2784 417.66 100.773H418.342C420.018 97.392 422.532 94.7074 425.884 92.7188C429.237 90.7017 433.256 89.6932 437.944 89.6932C443.796 89.6932 448.583 91.5256 452.305 95.1903C456.026 98.8267 457.887 104.494 457.887 112.193V156H447.83V112.193C447.83 107.364 446.509 103.912 443.867 101.838C441.225 99.7642 438.114 98.7273 434.535 98.7273C429.933 98.7273 426.367 100.119 423.839 102.903C421.31 105.659 420.046 109.153 420.046 113.386V156H409.819V111.17C409.819 107.449 408.612 104.452 406.197 102.179C403.782 99.8778 400.671 98.7273 396.864 98.7273C394.251 98.7273 391.808 99.4233 389.535 100.815C387.29 102.207 385.472 104.139 384.08 106.611C382.717 109.054 382.035 111.881 382.035 115.091V156H371.978Z" fill="white"/>
<path d="M201.063 185.719V184H213.062V185.719H208.031V200H206.094V185.719H201.063ZM222.873 200V184H224.81V191.125H233.341V184H235.279V200H233.341V192.844H224.81V200H222.873ZM245.978 200V184H255.634V185.719H247.915V191.125H255.134V192.844H247.915V198.281H255.759V200H245.978ZM292.454 192C292.454 193.687 292.149 195.146 291.54 196.375C290.93 197.604 290.094 198.552 289.032 199.219C287.969 199.885 286.756 200.219 285.391 200.219C284.027 200.219 282.813 199.885 281.751 199.219C280.688 198.552 279.852 197.604 279.243 196.375C278.634 195.146 278.329 193.687 278.329 192C278.329 190.312 278.634 188.854 279.243 187.625C279.852 186.396 280.688 185.448 281.751 184.781C282.813 184.115 284.027 183.781 285.391 183.781C286.756 183.781 287.969 184.115 289.032 184.781C290.094 185.448 290.93 186.396 291.54 187.625C292.149 188.854 292.454 190.312 292.454 192ZM290.579 192C290.579 190.615 290.347 189.445 289.884 188.492C289.425 187.539 288.803 186.818 288.016 186.328C287.235 185.839 286.36 185.594 285.391 185.594C284.423 185.594 283.545 185.839 282.759 186.328C281.977 186.818 281.355 187.539 280.891 188.492C280.433 189.445 280.204 190.615 280.204 192C280.204 193.385 280.433 194.555 280.891 195.508C281.355 196.461 281.977 197.182 282.759 197.672C283.545 198.161 284.423 198.406 285.391 198.406C286.36 198.406 287.235 198.161 288.016 197.672C288.803 197.182 289.425 196.461 289.884 195.508C290.347 194.555 290.579 193.385 290.579 192ZM315.219 184V200H313.344L304.625 187.437H304.469V200H302.532V184H304.407L313.157 196.594H313.313V184H315.219ZM325.916 200V184H335.572V185.719H327.854V191.125H335.072V192.844H327.854V198.281H335.697V200H325.916ZM358.017 185.719V184H370.017V185.719H364.986V200H363.048V185.719H358.017ZM379.827 200V184H381.765V191.125H390.296V184H392.234V200H390.296V192.844H381.765V200H379.827ZM404.87 184V200H402.932V184H404.87ZM428.262 184V200H426.387L417.668 187.437H417.512V200H415.575V184H417.45L426.2 196.594H426.356V184H428.262ZM449.897 189C449.725 188.474 449.498 188.003 449.217 187.586C448.941 187.164 448.61 186.805 448.225 186.508C447.845 186.211 447.412 185.984 446.928 185.828C446.444 185.672 445.912 185.594 445.334 185.594C444.386 185.594 443.524 185.839 442.748 186.328C441.972 186.818 441.355 187.539 440.897 188.492C440.438 189.445 440.209 190.615 440.209 192C440.209 193.385 440.441 194.555 440.904 195.508C441.368 196.461 441.996 197.182 442.787 197.672C443.579 198.161 444.47 198.406 445.459 198.406C446.376 198.406 447.183 198.211 447.881 197.82C448.584 197.424 449.131 196.867 449.522 196.148C449.917 195.424 450.115 194.573 450.115 193.594L450.709 193.719H445.897V192H451.99V193.719C451.99 195.036 451.709 196.182 451.147 197.156C450.589 198.13 449.819 198.885 448.834 199.422C447.855 199.953 446.73 200.219 445.459 200.219C444.042 200.219 442.798 199.885 441.725 199.219C440.657 198.552 439.824 197.604 439.225 196.375C438.631 195.146 438.334 193.687 438.334 192C438.334 190.734 438.503 189.596 438.842 188.586C439.186 187.57 439.67 186.706 440.295 185.992C440.92 185.279 441.66 184.732 442.514 184.352C443.368 183.971 444.308 183.781 445.334 183.781C446.178 183.781 446.964 183.909 447.694 184.164C448.428 184.414 449.082 184.771 449.654 185.234C450.233 185.693 450.714 186.242 451.1 186.883C451.485 187.518 451.751 188.224 451.897 189H449.897ZM463.223 200.125C462.837 200.125 462.506 199.987 462.23 199.711C461.954 199.435 461.816 199.104 461.816 198.719C461.816 198.333 461.954 198.003 462.23 197.727C462.506 197.451 462.837 197.312 463.223 197.312C463.608 197.312 463.939 197.451 464.215 197.727C464.491 198.003 464.629 198.333 464.629 198.719C464.629 198.974 464.564 199.208 464.433 199.422C464.308 199.635 464.139 199.807 463.926 199.937C463.717 200.063 463.483 200.125 463.223 200.125Z" fill="white"/>
</g>
<defs>
<clipPath id="clip0_7_26">
<rect width="800" height="240" fill="white"/>
</clipPath>
</defs>
</svg>
